# xmcd
# Track frame offsets:
# 150
# 17554
# 34605
# 52499
# 69033
# 87920
# 104282
# 118725
# 135686
# 151033
# 169234
# 186573
# 202339
# 225015
# 243973
# 261324
# 280966
# 294721
# 312715
#
# Disc length: 4410 seconds
# Revision: 0
# Processed by: cddbd v1.5.2PL0 Copyright (c) Steve Scherf et al.
# Submitted via: VisiTrax 2.10.3.257 - For more info visit www.synapsa.com
#
DISCID=18113813
DTITLE=Various Artist - Prime Cuts HP200802
DYEAR=2008
DGENRE=Top 40
TTITLE0=Taylor Dayne - Beautiful
TTITLE1=Good Charlotte - Victims Of Love[Album Version]
TTITLE2=Jaheim - Never
TTITLE3=Plies feat. Tank - You
TTITLE4=Ciara feat. J-Hood - AHH
TTITLE5=Tiffany Evans feat. Bow Wow - I'm Grown
TTITLE6=Bow Wow and Omarion - Hey Baby(Jump Off)
TTITLE7=Yung Ralph - I Work Hard{Album Version Edited]
TTITLE8=Jason Michael Carroll - I Can Sleep When I'm Dead
TTITLE9=Sara Evans - Some Things Never Change
TTITLE10=Clay Walker - She Likes It In The Morning
TTITLE11=Keith Anderson - I Still Miss You
TTITLE12=Dragon Force - Through The Fire And Flames[Edit]
TTITLE13=Theory of A Deadman - So Happy[Radio Edit]
TTITLE14=Ashes Divide - The Stone[Album Version]
TTITLE15=Alter Bridge - Watch Over You
TTITLE16=Britney Spears - Piece Of Me[Bimbo Jones Radio Edit]
TTITLE17=Connersvine - Live For You[Radio Mix 2(Hotter)]
TTITLE18=Building 429 - Singing Over Me
EXTD=DJ Subscription Service
EXTT0=
EXTT1=
EXTT2=
EXTT3=
EXTT4=
EXTT5=
EXTT6=
EXTT7=
EXTT8=
EXTT9=
EXTT10=
EXTT11=
EXTT12=
EXTT13=
EXTT14=
EXTT15=
EXTT16=
EXTT17=
EXTT18=
PLAYORDER=
